# xmcd
#
# Track frame offsets:
#	150
#	9602
#	23427
#	32692
#	45377
#	56812
#	67895
#	81847
#	94295
#	105235
#	117407
#	130947
#
# Disc length: 1915
#
# Revision: 2
# Processed by: cddbd v1.5.1PL0 Copyright (c) Steve Scherf et al.
# Submitted via: audiograbber 1.80
# Normalized: r1:DSETVAR1
#
DISCID=8f07790c
DTITLE=Various Artist - Classic Country Volume 1
DYEAR=1900
DGENRE=
TTITLE0=Dottie West - Country Sunshine
TTITLE1=Waylon Jennings - A Good Hearted Woman
TTITLE2=Charley Pride - Kiss an Angel Good Mornin'
TTITLE3=Hank Snow - Hello Love
TTITLE4=Loretta Lynn - Love is the Foundation
TTITLE5=Conway Twitty - Hello Darlin'
TTITLE6=Willie Nelson - If You Can Touch Her At All
TTITLE7=Ronnie Milsap - Please Don't Tell Me How the Story Ends
TTITLE8=Charlie Rich - There Won't Be Anymore
TTITLE9=Dolly Parton - Jolene
TTITLE10=Glen Campbell - Southern Nights
TTITLE11=Merle Haggard and The Strangers - The Fightin' Side of Me
EXTD=
EXTT0=
EXTT1=
EXTT2=
EXTT3=
EXTT4=
EXTT5=
EXTT6=
EXTT7=
EXTT8=
EXTT9=
EXTT10=
EXTT11=
PLAYORDER=
